{"glyphs":{":":{"x_min":0,"x_max":331,"ha":331,"o":"m 347 420 q 347 367 305 324 q 263 280 213 280 q 168 280 135 324 q 107 362 107 400 q 107 437 153 483 q 204 533 260 533 q 292 533 320 493 q 347 453 347 420 z m 347 100 q 347 69 302 21 q 257 -27 227 -27 q 177 -27 128 14 q 80 56 80 100 q 80 128 118 170 q 157 213 193 213 q 233 213 288 177 q 347 137 347 100 z"},"$":{"x_min":0,"x_max":569,"ha":569,"o":"m 585 562 q 562 554 531 554 q 510 554 464 560 q 419 565 396 565 q 297 565 240 486 q 267 435 338 395 q 400 365 463 334 q 531 297 554 250 q 563 232 563 214 q 563 143 437 62 q 357 9 268 -25 q 248 -68 251 -171 q 247 -171 220 -178 q 192 -186 177 -186 q 160 -161 152 -116 q 144 -70 136 -25 l 15 -25 q 15 -13 15 28 q 16 70 16 92 q 30 90 58 94 q 91 98 103 98 q 146 98 167 67 q 201 105 236 109 q 255 83 285 83 q 342 83 454 182 q 436 227 306 309 q 159 402 115 459 q 118 488 124 544 q 148 559 232 589 q 306 616 336 642 q 358 661 377 720 q 398 785 417 807 q 447 814 533 781 q 525 773 505 734 q 487 700 467 686 q 478 678 514 666 q 551 653 566 642 q 590 624 590 594 q 590 579 585 562 z"},"?":{"x_min":0,"x_max":722,"ha":722,"o":"m 397 185 q 396 179 401 159 q 407 135 408 120 q 400 112 377 108 q 354 104 334 106 q 314 114 290 162 q 266 209 266 235 q 266 243 269 246 q 306 274 420 327 q 531 379 578 417 q 653 477 661 556 q 638 640 576 683 q 521 721 444 721 q 322 721 219 638 q 110 551 110 436 q 110 409 117 382 q 50 376 4 408 q 1 424 1 441 q 1 562 130 678 q 253 789 387 808 q 401 810 417 810 q 532 810 646 740 q 774 661 774 556 q 774 464 623 348 q 510 266 397 185 z m 461 -82 q 461 -108 416 -150 q 371 -192 344 -185 q 324 -135 291 -45 q 303 -45 330 -24 q 358 -3 375 -3 q 404 -3 432 -31 q 461 -59 461 -82 z"},"<":{"x_min":0,"x_max":731,"ha":731,"o":"m 783 724 q 580 577 217 274 q 261 200 427 86 q 656 -72 717 -124 q 696 -152 657 -170 q 618 -189 582 -189 q 555 -189 538 -178 q 520 -168 490 -130 q 460 -93 453 -88 q 366 -19 230 72 q 117 147 5 221 q 6 255 32 304 q 52 341 72 377 q 85 371 101 371 q 162 371 280 457 q 354 511 504 643 q 653 775 709 817 q 713 813 738 778 q 764 744 783 724 z"},"'":{"x_min":0,"x_max":161,"ha":161,"o":"m 173 377 q 152 357 140 357 q 135 357 135 362 q 93 365 68 428 q 46 486 46 566 q 46 647 69 702 q 95 764 140 764 q 156 764 172 757 z"},"=":{"x_min":0,"x_max":609,"ha":609,"o":"m 652 349 q 602 328 513 297 q 386 346 287 346 q 214 346 153 320 q 134 331 119 357 q 101 385 101 411 q 101 450 142 470 q 387 444 638 425 q 638 421 645 393 q 652 365 652 349 z m 613 152 q 584 123 584 108 q 509 131 433 131 q 366 131 242 104 q 123 78 57 81 q 43 102 43 133 q 43 178 85 195 q 117 196 290 210 q 439 223 517 223 q 546 223 569 221 q 590 208 613 152 z"},"a":{"x_min":0,"x_max":642,"ha":642,"o":"m 702 126 q 692 126 650 120 q 608 113 573 112 q 571 92 571 75 q 571 23 592 -20 q 612 -64 612 -79 q 612 -115 558 -185 q 495 -191 473 -151 q 457 -123 457 -54 q 457 -46 457 -30 q 457 -14 457 -6 q 457 73 437 106 q 400 110 367 110 q 245 110 160 44 q 152 -39 132 -75 q 97 -138 7 -142 q -1 -96 -1 -63 q -1 -12 17 16 q 187 286 305 528 q 319 558 338 633 q 357 708 371 739 q 382 761 424 779 q 462 796 466 813 q 510 789 519 784 q 554 761 564 740 q 569 730 569 706 q 569 689 566 650 q 562 612 562 597 q 568 409 568 393 q 568 280 548 205 q 596 179 641 173 q 666 170 690 167 q 704 161 702 126 z m 446 211 q 450 431 433 546 q 296 376 251 197 q 274 197 347 204 q 420 211 446 211 z"},"L":{"x_min":0,"x_max":606,"ha":606,"o":"m 650 -61 q 212 -169 2 -163 q 23 -67 86 141 q 151 357 178 471 q 222 660 228 814 q 285 814 343 779 q 343 645 276 412 q 209 178 209 64 q 209 21 215 -20 q 234 -26 263 -26 q 297 -26 388 -12 q 480 3 526 3 q 591 3 631 -19 q 632 -32 650 -61 z"},"3":{"x_min":0,"x_max":759,"ha":759,"o":"m 770 679 q 770 612 669 531 q 576 467 484 403 q 499 378 567 355 q 656 327 683 311 q 744 275 752 211 q 704 46 501 -65 q 317 -167 131 -167 q 58 -167 6 -148 q 4 -111 28 -76 q 53 -41 90 -29 q 142 -60 220 -60 q 326 -60 431 -6 q 544 52 607 148 q 596 214 540 241 q 496 263 414 263 q 379 263 306 258 q 234 253 201 253 q 181 253 164 254 q 159 295 159 313 q 159 376 199 406 q 319 419 437 492 q 536 555 613 647 q 575 691 501 691 q 385 691 202 590 q 179 600 155 638 q 131 675 134 699 q 181 745 234 763 q 270 775 330 778 q 399 782 426 788 q 567 818 607 818 q 641 818 671 810 q 708 800 739 758 q 770 717 770 679 z"},";":{"x_min":0,"x_max":353,"ha":353,"o":"m 347 420 q 347 367 305 324 q 263 280 213 280 q 168 280 135 324 q 107 362 107 400 q 107 437 153 483 q 204 533 260 533 q 292 533 320 493 q 347 453 347 420 z m 347 100 q 347 -27 321 -89 q 300 -140 266 -140 q 243 -140 224 -117 q 205 -94 205 -67 q 205 -41 227 -27 q 177 -27 128 14 q 80 56 80 100 q 80 128 118 170 q 157 213 193 213 q 233 213 288 177 q 347 137 347 100 z"},"J":{"x_min":0,"x_max":706,"ha":706,"o":"m 756 776 q 711 592 665 409 q 609 194 552 64 q 529 10 437 -78 q 333 -177 279 -172 q 170 -163 129 -86 q 114 -59 83 80 q 57 192 0 247 q 11 277 79 327 q 150 381 184 374 q 192 341 200 254 q 207 168 219 120 q 239 43 282 -14 q 399 24 470 148 q 516 227 553 370 q 562 403 562 451 q 562 490 554 569 q 547 648 547 681 q 547 697 548 711 q 584 734 620 757 q 660 784 683 816 q 696 816 722 802 q 749 788 756 776 z"},"V":{"x_min":0,"x_max":671,"ha":671,"o":"m 734 636 q 625 506 496 288 q 367 70 303 -91 q 295 -113 259 -137 q 213 -169 210 -172 q 208 -170 203 -170 q 197 -170 172 -175 q 151 -180 143 -178 q 116 -158 97 -107 q 92 107 87 321 q 72 547 0 583 q 22 602 38 643 q 53 681 53 710 q 70 718 95 718 q 108 718 138 715 q 169 712 186 712 q 202 642 202 525 q 202 512 202 484 q 202 456 202 442 q 202 240 252 93 q 463 356 546 570 q 556 596 560 668 q 564 741 575 773 q 624 811 668 811 q 674 811 679 810 q 740 737 740 672 q 740 653 734 636 z"},"\"":{"x_min":0,"x_max":389,"ha":389,"o":"m 411 732 q 417 712 417 681 q 417 617 395 530 q 373 444 344 388 q 332 386 311 399 q 287 414 283 432 q 278 459 278 496 q 278 633 322 727 q 343 732 411 732 z m 173 377 q 152 357 140 357 q 135 357 135 362 q 93 365 68 428 q 46 486 46 566 q 46 647 69 702 q 95 764 140 764 q 156 764 172 757 z"},"7":{"x_min":0,"x_max":769,"ha":769,"o":"m 824 253 q 624 238 522 180 q 473 153 450 33 q 443 -7 431 -138 q 401 -170 346 -170 q 354 -170 265 -162 q 268 -93 314 20 q 357 124 353 154 q 332 158 307 158 q 274 158 201 146 q 128 135 92 135 q 78 158 78 194 q 78 227 91 248 q 116 255 235 261 q 336 266 391 295 q 457 330 546 610 q 174 573 22 573 q 2 607 2 659 q 2 675 5 689 q 35 730 61 730 q 75 732 93 732 q 119 732 215 723 q 305 715 359 717 q 499 721 566 748 q 630 783 695 817 q 737 770 737 708 q 737 652 701 575 q 685 540 627 437 q 578 351 561 303 q 591 280 644 289 q 724 303 734 303 q 786 301 824 253 z"},"S":{"x_min":0,"x_max":594,"ha":594,"o":"m 582 249 q 568 236 532 225 q 497 214 474 217 q 443 263 443 309 q 443 319 445 325 q 475 391 504 456 q 534 527 534 576 q 534 639 491 697 q 350 640 255 562 q 129 461 129 356 q 129 333 136 309 q 158 231 266 199 q 361 176 455 153 q 555 117 562 27 q 537 -62 405 -122 q 282 -178 141 -178 q 91 -178 47 -169 q 34 -144 34 -120 q 34 -85 80 -24 q 148 -78 230 -78 q 296 -78 344 -42 q 392 -6 398 53 q 334 64 271 74 q 188 90 135 120 q 65 160 25 234 q 12 262 12 296 q 12 387 94 506 q 168 613 276 702 q 383 790 462 809 q 477 813 497 813 q 548 813 571 793 q 636 735 636 614 q 636 544 612 421 q 585 285 582 249 z"},"}":{"x_min":0,"x_max":474,"ha":474,"o":"m 50 701 q 108 713 140 713 q 266 713 261 585 q 247 556 234 526 q 219 490 219 460 q 219 389 297 315 q 230 278 230 202 q 230 175 241 118 q 252 62 252 37 q 252 -24 206 -56 q 185 -54 114 -42 q 43 -31 10 -28 q 27 -76 103 -113 q 179 -150 255 -150 q 326 -150 359 -114 q 377 -94 377 -43 q 377 -9 367 58 q 356 131 355 154 q 377 185 417 195 q 470 208 475 212 q 502 228 508 280 q 500 335 457 349 q 419 353 381 358 q 328 412 328 440 q 328 445 330 450 q 346 497 367 543 q 374 557 374 576 q 374 652 286 752 q 199 853 133 853 q 126 853 121 852 q 92 845 61 814 q 25 779 25 746 q 25 720 50 701 z"},"Z":{"x_min":0,"x_max":789,"ha":789,"o":"m 840 682 q 818 631 736 557 q 626 458 608 437 q 511 332 414 227 q 293 89 261 -4 q 313 -18 364 -18 q 429 -18 514 9 q 613 40 644 44 q 644 -64 610 -169 q 530 -120 394 -120 q 242 -120 116 -175 q 60 -160 0 -100 q 16 -86 36 -42 q 55 3 68 14 q 214 129 323 251 q 396 332 482 454 q 579 590 616 635 q 582 631 498 634 q 418 637 378 632 q 314 623 277 589 q 267 587 258 587 q 226 587 191 622 q 150 663 139 668 q 144 673 185 729 q 218 774 238 785 q 398 733 494 733 q 628 733 792 815 q 816 807 831 774 q 845 745 845 713 q 845 694 840 682 z"},"x":{"x_min":0,"x_max":703,"ha":703,"o":"m 743 694 q 672 633 592 531 q 516 433 441 336 q 439 326 439 315 q 439 249 531 110 q 628 -39 639 -103 q 616 -104 570 -120 q 525 -135 504 -135 q 468 -135 443 -103 q 433 -87 434 -48 q 436 -5 432 9 q 407 87 404 95 q 383 151 353 191 q 347 171 278 100 q 213 34 213 -6 q 213 -40 250 -67 q 173 -131 37 -184 q 21 -160 12 -124 q 2 -88 5 -64 q 29 -33 108 45 q 186 123 221 167 q 278 238 291 294 q 305 351 273 442 q 264 467 205 597 q 166 686 166 726 q 166 803 295 798 q 297 682 384 441 q 442 510 499 579 q 582 686 582 768 q 582 783 580 797 q 583 797 606 798 q 628 800 644 800 q 753 800 753 738 q 753 719 743 694 z"},")":{"x_min":0,"x_max":413,"ha":413,"o":"m -12 661 q 159 653 262 531 q 356 419 356 265 q 356 168 315 86 q 271 -3 190 -55 q 188 -56 185 -56 q 180 -56 157 -50 q 134 -43 121 -43 q 102 -59 89 -59 q 85 -95 132 -134 q 180 -173 235 -173 q 300 -173 339 -111 q 442 51 442 242 q 442 446 330 604 q 212 769 18 815 q 8 778 -1 742 q -12 697 -12 661 z"},"&":{"x_min":0,"x_max":936,"ha":936,"o":"m 954 -83 q 939 -115 870 -185 q 665 -31 631 -31 q 612 -31 496 -62 q 381 -92 362 -92 q 273 -92 139 -12 q 0 72 0 138 q 0 199 117 298 q 200 363 282 427 q 290 457 289 518 q 288 580 296 610 q 310 659 436 741 q 552 815 577 815 q 686 815 790 781 q 938 732 938 638 q 938 566 826 497 q 748 449 604 398 q 446 343 445 343 q 451 305 514 228 q 577 150 638 108 q 671 141 737 224 q 801 304 836 337 l 921 337 q 921 333 930 302 q 938 271 938 254 q 938 227 875 161 q 821 106 753 51 q 764 6 833 -21 q 925 -57 954 -83 z m 799 604 q 799 612 790 640 q 782 667 782 675 q 758 675 715 684 q 672 692 654 692 q 597 692 512 652 q 416 606 417 560 l 417 478 q 515 504 613 530 q 733 561 799 604 z m 507 36 q 493 53 302 292 q 260 278 214 230 q 169 183 169 154 q 169 126 230 70 q 290 15 315 15 q 434 15 507 36 z"},"_":{"x_min":0,"x_max":717,"ha":717,"o":"m 688 -78 q 688 -106 662 -143 q 634 -183 605 -183 q 539 -165 403 -165 q 224 -165 117 -189 q 77 -193 77 -193 q 27 -193 7 -158 q 7 -125 39 -85 q 70 -48 90 -48 q 109 -42 312 -42 q 685 -42 688 -78 z"},"v":{"x_min":0,"x_max":671,"ha":671,"o":"m 734 636 q 625 506 496 288 q 367 70 303 -91 q 295 -113 259 -137 q 213 -169 210 -172 q 208 -170 203 -170 q 197 -170 172 -175 q 151 -180 143 -178 q 116 -158 97 -107 q 92 107 87 321 q 72 547 0 583 q 22 602 38 643 q 53 681 53 710 q 70 718 95 718 q 108 718 138 715 q 169 712 186 712 q 202 642 202 525 q 202 512 202 484 q 202 456 202 442 q 202 240 252 93 q 463 356 546 570 q 556 596 560 668 q 564 741 575 773 q 624 811 668 811 q 674 811 679 810 q 740 737 740 672 q 740 653 734 636 z"},"O":{"x_min":0,"x_max":577,"ha":577,"o":"m 475 794 q 585 641 585 437 q 585 264 505 104 q 424 -59 285 -156 q 269 -156 222 -168 q 175 -180 151 -180 q 122 -180 104 -166 q -7 -72 -7 90 q -7 278 149 564 q 214 682 324 814 q 334 811 475 794 z m 385 655 q 284 587 202 443 q 111 284 111 137 q 111 31 162 -50 q 165 -51 194 -61 q 218 -69 227 -69 q 355 5 425 134 q 488 251 488 383 q 488 560 385 655 z"},"(":{"x_min":0,"x_max":413,"ha":413,"o":"m 442 661 q 270 653 167 531 q 73 419 73 265 q 73 168 114 86 q 158 -3 240 -55 q 241 -56 245 -56 q 250 -56 273 -50 q 296 -43 309 -43 q 327 -59 340 -59 q 344 -95 297 -134 q 250 -173 195 -173 q 130 -173 90 -111 q -12 51 -12 242 q -12 446 100 604 q 217 769 412 815 q 422 778 431 742 q 442 697 442 661 z"},"C":{"x_min":0,"x_max":603,"ha":603,"o":"m 635 620 q 627 518 622 473 q 609 374 585 306 q 575 305 530 295 q 489 287 471 287 q 468 360 493 454 q 518 547 518 571 q 518 633 442 670 q 435 672 426 672 q 366 672 280 564 q 200 463 160 352 q 129 267 129 154 q 129 -13 214 -56 q 239 -69 278 -69 q 317 -69 416 -50 q 515 -30 562 -30 q 588 -30 609 -34 q 559 -86 446 -133 q 325 -182 224 -182 q 126 -182 80 -131 q 10 -53 10 96 q 10 210 49 334 q 84 444 121 485 q 138 503 159 562 q 182 625 193 640 q 224 685 288 734 q 351 783 411 809 q 420 813 434 813 q 448 813 480 807 q 509 802 520 804 q 550 778 593 710 q 636 641 635 620 z"},"W":{"x_min":0,"x_max":1173,"ha":1173,"o":"m 1247 727 q 1256 690 1256 661 q 1256 632 1246 617 q 1104 401 1010 205 q 956 87 901 -32 q 853 -124 770 -183 q 706 -102 661 37 q 646 86 594 292 q 555 447 516 529 q 318 217 212 -74 q 115 -130 36 -130 q 37 -31 33 164 q 28 376 28 469 q 28 519 0 723 q -1 733 22 764 q 52 804 58 817 q 80 794 166 798 q 171 769 171 734 q 171 676 152 546 q 132 415 132 350 q 132 234 178 156 q 264 290 350 423 q 443 579 443 681 q 443 696 441 710 q 475 733 533 750 q 588 766 624 764 q 643 689 665 532 q 687 369 705 292 q 736 161 790 71 q 894 155 967 295 q 1020 398 1064 549 q 1093 657 1122 764 q 1152 764 1200 748 q 1243 734 1247 727 z"},"A":{"x_min":0,"x_max":642,"ha":642,"o":"m 702 126 q 692 126 650 120 q 608 113 573 112 q 571 92 571 75 q 571 23 592 -20 q 612 -64 612 -79 q 612 -115 558 -185 q 495 -191 473 -151 q 457 -123 457 -54 q 457 -46 457 -30 q 457 -14 457 -6 q 457 73 437 106 q 400 110 367 110 q 245 110 160 44 q 152 -39 132 -75 q 97 -138 7 -142 q -1 -96 -1 -63 q -1 -12 17 16 q 187 286 305 528 q 319 558 338 633 q 357 708 371 739 q 382 761 424 779 q 462 796 466 813 q 510 789 519 784 q 554 761 564 740 q 569 730 569 706 q 569 689 566 650 q 562 612 562 597 q 568 409 568 393 q 568 280 548 205 q 596 179 641 173 q 666 170 690 167 q 704 161 702 126 z m 446 211 q 450 431 433 546 q 296 376 251 197 q 274 197 347 204 q 420 211 446 211 z"},"f":{"x_min":0,"x_max":754,"ha":754,"o":"m 808 722 q 808 689 775 643 q 747 643 659 650 q 575 656 526 656 q 392 656 326 614 q 239 560 249 429 q 313 400 470 386 q 599 374 647 327 q 600 321 502 320 q 394 320 346 316 q 260 308 202 280 q 181 271 161 195 q 143 130 136 57 q 135 44 135 30 q 135 -21 161 -152 q 120 -170 43 -170 q 22 -170 2 -168 q -1 -107 35 52 q 64 173 92 294 q 98 322 150 505 q 186 631 186 713 q 186 748 181 780 q 213 811 259 811 q 331 811 393 744 q 424 742 510 756 q 603 771 651 771 q 751 771 808 722 z"},"Q":{"x_min":0,"x_max":595,"ha":595,"o":"m 572 255 q 556 211 509 141 q 432 26 425 15 q 421 9 421 -1 q 421 -14 434 -64 q 447 -113 445 -140 q 430 -152 393 -164 q 360 -174 327 -185 q 327 -180 320 -155 q 312 -130 312 -114 q 154 -126 72 -33 q -1 50 -1 197 q -1 356 79 517 q 162 684 290 766 q 333 776 413 761 q 420 773 461 790 q 499 807 517 808 q 605 692 605 476 q 605 350 572 255 z m 491 657 q 465 664 438 664 q 309 664 209 522 q 113 388 113 236 q 113 148 152 87 q 195 20 279 -1 q 279 122 228 353 q 231 355 271 387 q 299 409 313 407 q 348 356 366 258 q 390 132 393 124 q 454 198 487 303 q 517 399 517 499 q 517 592 491 657 z"},"w":{"x_min":0,"x_max":1173,"ha":1173,"o":"m 1247 727 q 1256 690 1256 661 q 1256 632 1246 617 q 1104 401 1010 205 q 956 87 901 -32 q 853 -124 770 -183 q 706 -102 661 37 q 646 86 594 292 q 555 447 516 529 q 318 217 212 -74 q 115 -130 36 -130 q 37 -31 33 164 q 28 376 28 469 q 28 519 0 723 q -1 733 22 764 q 52 804 58 817 q 80 794 166 798 q 171 769 171 734 q 171 676 152 546 q 132 415 132 350 q 132 234 178 156 q 264 290 350 423 q 443 579 443 681 q 443 696 441 710 q 475 733 533 750 q 588 766 624 764 q 643 689 665 532 q 687 369 705 292 q 736 161 790 71 q 894 155 967 295 q 1020 398 1064 549 q 1093 657 1122 764 q 1152 764 1200 748 q 1243 734 1247 727 z"},"-":{"x_min":0,"x_max":568,"ha":568,"o":"m 608 380 q 608 352 583 315 q 555 275 526 275 q 463 293 386 293 q 293 293 181 267 q 141 263 141 263 q 90 263 70 298 q 70 331 103 371 q 134 408 153 408 q 194 408 268 386 q 342 365 376 365 q 406 365 431 376 q 442 381 469 402 q 496 422 511 426 q 519 429 532 429 q 605 429 608 380 z"},"E":{"x_min":0,"x_max":851,"ha":851,"o":"m 872 748 q 815 703 669 703 q 653 703 621 703 q 588 704 573 704 q 436 704 384 664 q 357 643 329 543 q 293 418 283 397 q 331 363 375 363 q 405 363 458 380 q 521 401 583 421 q 613 442 688 476 q 707 469 732 443 q 757 417 763 396 q 750 354 689 304 q 664 315 624 315 q 545 315 367 260 q 329 256 291 251 q 232 238 213 187 q 201 154 188 95 q 177 47 166 0 q 182 -28 236 -28 q 270 -28 392 0 q 447 5 538 24 q 578 44 663 78 q 663 70 682 30 q 700 -9 700 -34 q 700 -69 670 -93 q 599 -93 529 -94 q 437 -95 380 -103 q 346 -107 230 -146 q 127 -180 56 -182 q 20 -183 2 -139 q -23 -76 -40 -59 q 33 -16 84 99 q 119 175 154 316 q 192 469 205 501 q 215 528 220 619 q 224 702 244 736 q 263 770 315 790 q 363 809 418 809 q 446 809 469 803 q 514 793 590 793 q 606 793 638 794 q 670 794 686 794 q 824 794 872 748 z"},"s":{"x_min":0,"x_max":594,"ha":594,"o":"m 582 249 q 568 236 532 225 q 497 214 474 217 q 443 263 443 309 q 443 319 445 325 q 475 391 504 456 q 534 527 534 576 q 534 639 491 697 q 350 640 255 562 q 129 461 129 356 q 129 333 136 309 q 158 231 266 199 q 361 176 455 153 q 555 117 562 27 q 537 -62 405 -122 q 282 -178 141 -178 q 91 -178 47 -169 q 34 -144 34 -120 q 34 -85 80 -24 q 148 -78 230 -78 q 296 -78 344 -42 q 392 -6 398 53 q 334 64 271 74 q 188 90 135 120 q 65 160 25 234 q 12 262 12 296 q 12 387 94 506 q 168 613 276 702 q 383 790 462 809 q 477 813 497 813 q 548 813 571 793 q 636 735 636 614 q 636 544 612 421 q 585 285 582 249 z"},">":{"x_min":0,"x_max":646,"ha":646,"o":"m 691 390 q 557 289 401 133 q 220 -48 171 -147 q 146 -147 37 -184 q 20 -156 20 -123 q 20 -91 35 -56 q 45 -37 55 -17 q 113 -18 206 65 q 274 127 368 241 q 430 318 492 395 q 469 425 370 496 q 253 580 211 619 q 132 691 132 744 q 132 780 168 809 q 221 809 303 728 q 447 585 456 579 q 554 499 645 502 q 692 464 692 403 q 692 395 691 390 z"},"l":{"x_min":0,"x_max":606,"ha":606,"o":"m 650 -61 q 212 -169 2 -163 q 23 -67 86 141 q 151 357 178 471 q 222 660 228 814 q 285 814 343 779 q 343 645 276 412 q 209 178 209 64 q 209 21 215 -20 q 234 -26 263 -26 q 297 -26 388 -12 q 480 3 526 3 q 591 3 631 -19 q 632 -32 650 -61 z"},"8":{"x_min":0,"x_max":817,"ha":817,"o":"m 875 604 q 875 547 837 503 q 811 474 743 428 q 660 372 625 343 q 652 289 674 218 q 696 146 696 112 q 696 19 592 -56 q 510 -114 382 -152 q 279 -182 223 -182 q 99 -182 40 -86 q 0 -19 0 68 q 0 145 13 177 q 19 191 54 236 q 89 280 119 348 q 121 353 121 358 q 121 370 98 414 q 76 457 76 487 q 76 649 294 743 q 468 818 670 818 q 736 818 810 725 q 875 643 875 604 z m 732 577 q 732 606 712 634 q 693 662 667 674 q 641 622 563 586 q 527 608 504 650 q 490 675 437 675 q 398 675 312 603 q 232 536 232 523 q 232 481 273 408 q 305 416 383 450 q 449 479 473 479 q 492 479 517 461 q 542 443 562 443 q 585 443 656 491 q 732 544 732 577 z m 571 121 q 571 202 513 229 q 475 246 384 246 q 296 246 218 201 q 125 147 125 59 q 125 25 152 -17 q 188 -75 250 -75 q 273 -75 349 -46 q 437 -12 496 27 q 571 77 571 121 z"},"\\":{"x_min":0,"x_max":543,"ha":543,"o":"m 572 -49 q 568 -72 546 -115 q 527 -150 509 -184 q 497 -172 476 -172 q 455 -172 443 -184 q 381 13 245 273 q 223 315 127 477 q 48 610 10 695 q 5 709 5 731 q 5 772 20 799 q 22 799 44 802 q 65 806 80 806 q 122 806 134 780 q 153 738 191 615 q 226 503 253 452 q 321 324 389 197 q 462 72 572 -49 z"},"e":{"x_min":0,"x_max":851,"ha":851,"o":"m 872 748 q 815 703 669 703 q 653 703 621 703 q 588 704 573 704 q 436 704 384 664 q 357 643 329 543 q 293 418 283 397 q 331 363 375 363 q 405 363 458 380 q 521 401 583 421 q 613 442 688 476 q 707 469 732 443 q 757 417 763 396 q 750 354 689 304 q 664 315 624 315 q 545 315 367 260 q 329 256 291 251 q 232 238 213 187 q 201 154 188 95 q 177 47 166 0 q 182 -28 236 -28 q 270 -28 392 0 q 447 5 538 24 q 578 44 663 78 q 663 70 682 30 q 700 -9 700 -34 q 700 -69 670 -93 q 599 -93 529 -94 q 437 -95 380 -103 q 346 -107 230 -146 q 127 -180 56 -182 q 20 -183 2 -139 q -23 -76 -40 -59 q 33 -16 84 99 q 119 175 154 316 q 192 469 205 501 q 215 528 220 619 q 224 702 244 736 q 263 770 315 790 q 363 809 418 809 q 446 809 469 803 q 514 793 590 793 q 606 793 638 794 q 670 794 686 794 q 824 794 872 748 z"},"b":{"x_min":0,"x_max":768,"ha":768,"o":"m 822 215 q 822 145 740 52 q 659 -40 582 -69 q 455 -115 247 -133 q 230 -134 192 -151 q 141 -173 122 -180 q 117 -181 111 -181 q 99 -181 66 -174 q 32 -166 18 -166 q 19 -147 12 -107 q 5 -67 5 -49 q 5 -29 10 -15 q 86 178 117 293 q 131 347 169 540 q 170 548 170 558 q 170 579 158 642 q 146 701 147 732 q 182 770 255 792 q 325 813 411 813 q 521 813 609 778 q 708 739 750 667 q 744 598 688 525 q 632 452 540 394 q 564 369 643 346 q 736 318 764 303 q 822 271 822 215 z m 619 619 q 539 684 424 684 q 371 684 339 664 q 304 592 272 406 q 377 400 479 467 q 573 529 619 619 z m 666 208 q 623 230 546 246 q 480 260 444 260 q 312 260 249 218 q 175 167 175 46 q 175 23 184 2 q 193 -18 193 -24 l 308 -24 q 340 -25 426 1 q 517 29 568 59 q 631 97 666 208 z"},"%":{"x_min":0,"x_max":812,"ha":812,"o":"m 870 209 q 870 190 862 188 q 850 186 847 182 q 852 170 852 153 q 852 76 780 -20 q 703 -122 623 -122 q 562 -122 531 -80 q 506 -45 506 8 q 506 54 583 181 q 666 319 721 319 q 735 319 781 306 q 827 292 855 292 q 855 279 862 250 q 870 222 870 209 z m 792 748 q 792 736 599 450 q 377 121 302 -12 q 320 -61 320 -78 q 320 -85 319 -90 q 285 -123 251 -156 q 211 -191 160 -186 q 146 -176 133 -165 q 117 -149 117 -129 q 117 -110 313 175 q 577 558 637 649 q 639 651 639 652 q 639 657 617 657 q 575 657 431 596 q 444 571 444 542 q 444 448 325 348 q 214 255 136 255 q 80 255 38 310 q 0 359 0 410 q 0 537 108 628 q 204 709 312 709 q 326 709 354 702 q 381 696 396 696 q 412 696 448 716 q 484 735 500 735 q 516 735 516 728 q 516 722 532 722 q 573 722 638 767 q 702 812 709 812 l 778 812 q 778 808 785 786 q 792 765 792 748 z m 753 125 q 753 148 747 157 q 741 166 721 177 q 688 160 654 107 q 623 58 623 34 q 623 11 630 2 q 636 -8 657 -18 q 716 41 727 55 q 753 89 753 125 z m 338 501 q 338 519 291 544 q 230 576 215 592 q 104 514 104 430 q 104 390 120 374 q 135 358 175 358 q 209 358 269 401 q 338 450 338 501 z"},"m":{"x_min":0,"x_max":847,"ha":847,"o":"m 907 767 q 886 632 837 376 q 791 130 776 34 q 775 26 775 16 q 775 -6 783 -42 q 790 -72 797 -102 q 785 -134 750 -158 q 714 -182 677 -182 q 647 -182 627 -164 q 606 -138 606 -97 q 606 -82 611 -73 q 669 38 697 131 q 715 193 729 285 q 745 390 758 442 l 735 467 q 667 379 532 212 q 526 204 516 169 q 506 134 492 120 q 473 101 428 80 q 372 54 355 42 q 321 79 314 143 q 312 205 310 267 q 307 347 281 406 q 257 342 170 33 q 168 27 168 18 q 168 7 172 -23 q 177 -53 177 -70 q 177 -80 176 -89 q 156 -105 115 -154 q 57 -122 17 -122 q 20 -106 10 -74 q 1 -41 4 -25 q 8 0 52 64 q 95 129 101 158 q 104 174 161 407 q 197 554 197 628 q 197 672 186 703 q 187 704 225 753 q 251 784 278 803 q 295 803 325 790 q 365 772 367 748 q 388 597 424 296 l 448 270 q 564 376 644 490 q 735 620 737 702 q 739 718 769 751 q 803 788 808 800 q 873 767 907 767 z"},"#":{"x_min":0,"x_max":984,"ha":984,"o":"m 1027 394 q 1012 398 840 442 q 832 418 818 368 q 804 319 796 295 q 816 286 888 275 q 950 266 977 245 q 1016 215 1013 146 q 906 146 777 191 q 734 53 722 -117 q 709 -137 686 -157 q 656 -184 631 -184 q 621 -184 613 -179 q 582 -157 582 -120 q 582 -93 616 2 q 652 102 658 178 q 569 196 455 196 q 328 196 316 164 q 292 103 292 68 q 292 28 316 -4 q 297 -43 229 -83 q 165 -120 128 -120 q 123 -100 123 -79 q 123 -34 151 36 q 183 119 188 149 q 164 168 138 168 q 123 168 97 160 q 71 151 59 151 q 27 151 0 197 q 17 264 80 264 q 91 264 118 262 q 144 259 158 259 q 216 259 250 299 q 238 309 196 322 q 153 334 130 351 q 130 389 154 422 q 173 447 198 460 q 210 457 222 457 q 291 457 332 545 q 367 619 367 708 q 367 731 364 749 q 401 770 461 800 q 487 783 487 738 q 487 693 460 612 q 440 556 420 500 q 490 500 581 510 q 667 521 753 532 q 774 625 767 796 q 796 814 821 814 q 860 814 883 772 q 904 734 904 679 q 904 612 875 575 q 898 561 915 561 q 937 561 960 581 q 1054 523 1054 473 q 1054 449 1027 394 z m 716 438 q 684 427 572 415 q 470 403 426 383 q 360 353 362 286 l 684 286 q 692 310 700 362 q 709 415 716 438 z"},",":{"x_min":0,"x_max":363,"ha":363,"o":"m 331 -59 q 331 -186 305 -249 q 284 -299 251 -299 q 227 -299 208 -276 q 189 -253 189 -227 q 189 -200 211 -186 q 162 -186 113 -145 q 64 -104 64 -59 q 64 -31 103 12 q 142 54 178 54 q 218 54 272 17 q 331 -22 331 -59 z"},"n":{"x_min":0,"x_max":898,"ha":898,"o":"m 952 652 q 891 581 810 324 q 739 97 704 -95 q 665 -118 626 -141 q 558 -179 512 -181 q 503 -149 500 -76 q 497 -7 486 26 q 411 250 314 444 q 273 336 232 228 q 177 62 177 -52 q 177 -94 184 -129 q 164 -127 122 -148 q 91 -166 59 -183 q 19 -157 19 -99 q 19 -41 67 79 q 123 216 129 251 q 151 338 172 425 q 203 553 203 628 q 203 676 191 708 q 199 736 229 792 q 285 804 317 804 q 348 804 371 797 q 374 721 416 595 q 439 522 506 350 q 574 177 602 88 q 701 289 741 393 q 803 550 803 647 q 803 702 784 742 q 807 767 856 792 q 906 816 935 816 q 942 816 947 814 q 962 757 962 715 q 962 680 952 652 z"},"h":{"x_min":0,"x_max":818,"ha":818,"o":"m 877 745 q 818 572 759 398 q 691 194 650 52 q 645 35 644 -24 q 644 -83 635 -108 q 621 -147 582 -147 q 550 -147 499 -122 q 488 -111 488 -87 q 488 -53 513 13 q 533 64 554 115 q 540 144 479 144 q 453 144 305 119 q 264 3 254 -147 q 229 -154 204 -160 q 159 -171 129 -171 q 109 -171 94 -166 q 92 -130 120 -39 q 152 65 155 81 q 143 89 126 89 q 120 89 106 88 q 93 86 87 86 q 31 86 0 161 q 9 201 74 205 q 151 211 171 232 q 235 297 265 444 q 288 560 311 675 q 346 787 428 798 q 428 789 446 765 q 459 748 471 732 q 405 548 385 492 q 337 352 307 242 q 340 228 396 228 q 456 228 500 245 q 550 266 557 306 q 564 306 588 298 q 611 291 619 291 q 659 372 693 522 q 707 582 743 775 q 798 817 841 809 q 852 802 864 780 q 877 757 877 745 z"},"z":{"x_min":0,"x_max":789,"ha":789,"o":"m 840 682 q 818 631 736 557 q 626 458 608 437 q 511 332 414 227 q 293 89 261 -4 q 313 -18 364 -18 q 429 -18 514 9 q 613 40 644 44 q 644 -64 610 -169 q 530 -120 394 -120 q 242 -120 116 -175 q 60 -160 0 -100 q 16 -86 36 -42 q 55 3 68 14 q 214 129 323 251 q 396 332 482 454 q 579 590 616 635 q 582 631 498 634 q 418 637 378 632 q 314 623 277 589 q 267 587 258 587 q 226 587 191 622 q 150 663 139 668 q 144 673 185 729 q 218 774 238 785 q 398 733 494 733 q 628 733 792 815 q 816 807 831 774 q 845 745 845 713 q 845 694 840 682 z"},"B":{"x_min":0,"x_max":768,"ha":768,"o":"m 822 215 q 822 145 740 52 q 659 -40 582 -69 q 455 -115 247 -133 q 230 -134 192 -151 q 141 -173 122 -180 q 117 -181 111 -181 q 99 -181 66 -174 q 32 -166 18 -166 q 19 -147 12 -107 q 5 -67 5 -49 q 5 -29 10 -15 q 86 178 117 293 q 131 347 169 540 q 170 548 170 558 q 170 579 158 642 q 146 701 147 732 q 182 770 255 792 q 325 813 411 813 q 521 813 609 778 q 708 739 750 667 q 744 598 688 525 q 632 452 540 394 q 564 369 643 346 q 736 318 764 303 q 822 271 822 215 z m 619 619 q 539 684 424 684 q 371 684 339 664 q 304 592 272 406 q 377 400 479 467 q 573 529 619 619 z m 666 208 q 623 230 546 246 q 480 260 444 260 q 312 260 249 218 q 175 167 175 46 q 175 23 184 2 q 193 -18 193 -24 l 308 -24 q 340 -25 426 1 q 517 29 568 59 q 631 97 666 208 z"},"K":{"x_min":0,"x_max":791,"ha":791,"o":"m 841 642 q 829 622 811 600 q 795 582 779 563 q 768 564 757 564 q 610 564 359 339 q 426 187 445 153 q 523 12 613 -44 q 569 -149 522 -149 q 484 -149 434 -78 q 425 -65 344 72 q 288 168 247 204 q 213 204 203 177 q 198 129 198 70 q 198 35 200 -27 q 203 -99 203 -129 q 188 -163 116 -163 q 69 -163 38 -144 q 2 -121 4 -79 q 6 -47 35 16 q 68 88 74 116 q 81 143 76 217 q 72 283 85 312 q 143 432 165 525 q 178 582 183 666 q 188 749 199 796 q 221 814 320 814 q 324 712 288 459 q 354 470 449 539 q 530 603 612 667 q 706 740 767 756 q 848 705 848 662 q 848 651 841 642 z"},"R":{"x_min":0,"x_max":705,"ha":705,"o":"m 755 614 q 753 530 677 458 q 622 405 504 342 q 322 244 313 239 q 335 205 357 150 q 381 91 403 53 q 442 -13 515 -99 q 520 -106 520 -121 q 520 -153 504 -184 q 461 -192 406 -174 q 374 -134 308 -26 q 248 72 200 129 q 171 119 160 69 q 155 46 149 -38 q 144 -114 132 -153 q 111 -159 94 -159 q 21 -159 21 -55 q 21 24 55 118 q 103 245 152 372 q 212 538 212 612 q 212 650 198 668 q 228 711 257 754 q 303 817 341 817 q 355 817 370 808 q 382 799 404 772 q 427 745 443 734 q 497 728 552 721 q 630 711 677 691 q 740 663 755 614 z m 609 619 q 544 621 479 623 q 403 623 350 614 q 278 506 271 339 q 381 363 488 435 q 611 518 611 600 q 611 610 609 619 z"},"T":{"x_min":0,"x_max":741,"ha":741,"o":"m 793 766 q 769 652 610 652 q 551 652 496 668 q 417 466 402 423 q 350 267 350 163 q 350 114 362 74 q 364 67 364 58 q 364 46 359 9 q 354 -28 354 -50 q 354 -91 368 -120 q 332 -159 241 -181 q 239 -180 195 -121 q 202 -8 264 254 q 327 515 333 628 q 294 665 225 665 q 193 665 138 656 q 83 647 64 647 q 13 647 13 693 q 13 724 33 779 q 100 765 207 762 q 299 761 390 760 q 437 758 530 778 q 624 799 670 799 q 739 799 793 766 z"},"P":{"x_min":0,"x_max":775,"ha":775,"o":"m 829 615 q 831 603 831 589 q 831 512 796 459 q 720 345 559 243 q 405 147 272 122 q 227 113 183 49 q 179 44 176 -38 q 172 -119 149 -155 q 116 -208 37 -183 q 3 -152 3 -105 q 3 -98 4 -92 q 12 -55 65 74 q 126 223 142 270 q 180 407 219 544 q 275 735 333 816 q 469 789 593 745 q 759 685 829 615 z m 681 566 q 646 594 586 619 q 514 650 459 650 q 390 650 366 599 q 333 530 299 421 q 273 334 248 246 q 263 246 285 226 q 401 240 538 346 q 687 462 681 566 z"},"|":{"x_min":0,"x_max":223,"ha":223,"o":"m 214 782 q 218 671 199 456 q 178 224 178 130 q 178 -5 204 -99 q 179 -140 114 -195 q 101 -199 46 -154 q 81 244 81 406 q 81 532 70 645 q 70 653 61 703 q 53 744 53 770 q 53 799 61 821 q 97 832 129 832 q 196 832 214 782 z"},"t":{"x_min":0,"x_max":741,"ha":741,"o":"m 793 766 q 769 652 610 652 q 551 652 496 668 q 417 466 402 423 q 350 267 350 163 q 350 114 362 74 q 364 67 364 58 q 364 46 359 9 q 354 -28 354 -50 q 354 -91 368 -120 q 332 -159 241 -181 q 239 -180 195 -121 q 202 -8 264 254 q 327 515 333 628 q 294 665 225 665 q 193 665 138 656 q 83 647 64 647 q 13 647 13 693 q 13 724 33 779 q 100 765 207 762 q 299 761 390 760 q 437 758 530 778 q 624 799 670 799 q 739 799 793 766 z"},"M":{"x_min":0,"x_max":847,"ha":847,"o":"m 907 767 q 886 632 837 376 q 791 130 776 34 q 775 26 775 16 q 775 -6 783 -42 q 790 -72 797 -102 q 785 -134 750 -158 q 714 -182 677 -182 q 647 -182 627 -164 q 606 -138 606 -97 q 606 -82 611 -73 q 669 38 697 131 q 715 193 729 285 q 745 390 758 442 l 735 467 q 667 379 532 212 q 526 204 516 169 q 506 134 492 120 q 473 101 428 80 q 372 54 355 42 q 321 79 314 143 q 312 205 310 267 q 307 347 281 406 q 257 342 170 33 q 168 27 168 18 q 168 7 172 -23 q 177 -53 177 -70 q 177 -80 176 -89 q 156 -105 115 -154 q 57 -122 17 -122 q 20 -106 10 -74 q 1 -41 4 -25 q 8 0 52 64 q 95 129 101 158 q 104 174 161 407 q 197 554 197 628 q 197 672 186 703 q 187 704 225 753 q 251 784 278 803 q 295 803 325 790 q 365 772 367 748 q 388 597 424 296 l 448 270 q 564 376 644 490 q 735 620 737 702 q 739 718 769 751 q 803 788 808 800 q 873 767 907 767 z"},"g":{"x_min":0,"x_max":661,"ha":661,"o":"m 708 77 q 700 79 691 79 q 650 79 569 12 q 441 -95 414 -113 q 314 -181 225 -181 q 107 -181 48 -91 q -2 -15 -2 109 q -2 247 53 376 q 81 440 130 526 q 192 632 248 694 q 300 753 413 810 q 660 825 660 567 q 660 461 604 258 q 575 254 553 254 q 472 254 472 306 q 472 334 513 428 q 554 523 554 571 q 554 631 505 665 q 339 683 226 496 q 127 331 127 137 q 127 45 155 -10 q 185 -69 242 -69 q 327 -69 452 65 q 428 80 325 100 q 227 118 194 143 q 194 202 247 245 q 267 248 327 222 q 393 194 428 191 q 556 181 579 175 q 670 152 708 77 z"},"j":{"x_min":0,"x_max":706,"ha":706,"o":"m 756 776 q 711 592 665 409 q 609 194 552 64 q 529 10 437 -78 q 333 -177 279 -172 q 170 -163 129 -86 q 114 -59 83 80 q 57 192 0 247 q 11 277 79 327 q 150 381 184 374 q 192 341 200 254 q 207 168 219 120 q 239 43 282 -14 q 399 24 470 148 q 516 227 553 370 q 562 403 562 451 q 562 490 554 569 q 547 648 547 681 q 547 697 548 711 q 584 734 620 757 q 660 784 683 816 q 696 816 722 802 q 749 788 756 776 z"},"i":{"x_min":0,"x_max":367,"ha":367,"o":"m 394 741 q 371 635 308 451 q 232 233 212 161 q 167 1 170 -111 q 137 -145 60 -183 q 47 -183 4 -126 q 98 148 123 229 q 192 454 221 643 q 224 685 228 727 q 234 785 254 816 q 384 822 394 741 z"},"y":{"x_min":0,"x_max":612,"ha":612,"o":"m 647 814 q 656 798 656 775 q 656 725 612 640 q 586 589 516 478 q 447 366 422 316 q 412 298 358 248 q 305 198 289 169 q 265 122 240 75 q 205 6 175 -33 q 202 -60 220 -60 q 212 -113 159 -137 q 98 -160 37 -184 q 1 -126 1 -45 q 81 -14 156 116 q 207 217 258 317 q 249 362 150 477 q 10 639 4 647 q 8 708 13 722 q 24 752 70 784 q 112 772 168 692 q 216 620 264 549 q 321 473 370 466 q 411 517 463 622 q 515 726 543 814 z"},"@":{"x_min":0,"x_max":1242,"ha":1242,"o":"m 1260 233 q 1209 179 1112 179 q 1069 179 982 192 q 896 206 860 206 q 844 206 832 205 q 778 147 695 107 q 609 65 533 65 q 379 65 365 234 q 360 284 424 364 q 489 443 580 499 q 680 561 761 561 q 802 561 834 545 q 864 436 905 353 q 919 324 958 306 q 996 289 1041 289 q 1145 289 1191 367 q 1180 521 983 614 q 882 662 679 706 q 653 711 622 711 q 522 711 414 661 q 294 605 215 508 q 173 455 146 380 q 116 297 116 219 q 116 110 175 39 q 244 -45 386 -65 q 427 -70 475 -70 q 536 -70 658 -59 q 813 -44 884 -40 q 868 -72 814 -118 q 764 -162 747 -163 q 625 -174 550 -174 q 134 -174 21 67 q -9 132 -9 210 q -9 338 66 471 q 141 604 265 696 q 398 795 549 816 q 685 812 864 755 q 1060 692 1185 603 q 1331 498 1331 386 q 1331 309 1260 233 z m 738 285 q 718 295 705 331 q 694 360 684 389 q 499 366 509 198 q 528 180 557 180 q 603 180 669 226 q 713 257 738 285 z"},".":{"x_min":0,"x_max":362,"ha":362,"o":"m 330 -62 q 330 -93 285 -141 q 240 -189 210 -189 q 161 -189 112 -148 q 63 -106 63 -62 q 63 -34 102 8 q 141 51 177 51 q 217 51 271 15 q 330 -25 330 -62 z"},"p":{"x_min":0,"x_max":775,"ha":775,"o":"m 829 615 q 831 603 831 589 q 831 512 796 459 q 720 345 559 243 q 405 147 272 122 q 227 113 183 49 q 179 44 176 -38 q 172 -119 149 -155 q 116 -208 37 -183 q 3 -152 3 -105 q 3 -98 4 -92 q 12 -55 65 74 q 126 223 142 270 q 180 407 219 544 q 275 735 333 816 q 469 789 593 745 q 759 685 829 615 z m 681 566 q 646 594 586 619 q 514 650 459 650 q 390 650 366 599 q 333 530 299 421 q 273 334 248 246 q 263 246 285 226 q 401 240 538 346 q 687 462 681 566 z"},"X":{"x_min":0,"x_max":703,"ha":703,"o":"m 743 694 q 672 633 592 531 q 516 433 441 336 q 439 326 439 315 q 439 249 531 110 q 628 -39 639 -103 q 616 -104 570 -120 q 525 -135 504 -135 q 468 -135 443 -103 q 433 -87 434 -48 q 436 -5 432 9 q 407 87 404 95 q 383 151 353 191 q 347 171 278 100 q 213 34 213 -6 q 213 -40 250 -67 q 173 -131 37 -184 q 21 -160 12 -124 q 2 -88 5 -64 q 29 -33 108 45 q 186 123 221 167 q 278 238 291 294 q 305 351 273 442 q 264 467 205 597 q 166 686 166 726 q 166 803 295 798 q 297 682 384 441 q 442 510 499 579 q 582 686 582 768 q 582 783 580 797 q 583 797 606 798 q 628 800 644 800 q 753 800 753 738 q 753 719 743 694 z"},"*":{"x_min":0,"x_max":593,"ha":593,"o":"m 600 448 q 592 433 572 423 q 552 413 533 405 q 546 383 559 360 q 577 329 586 296 q 574 294 562 294 q 510 294 452 337 q 404 372 365 427 q 274 373 274 302 q 274 286 279 269 q 218 268 197 285 q 182 297 177 332 q 171 376 161 397 q 197 397 214 431 q 179 439 143 439 q 101 439 43 428 q 35 452 35 471 q 35 511 74 528 q 100 539 161 544 q 232 550 254 555 q 224 591 193 626 q 153 678 153 720 q 153 748 169 772 q 186 778 200 778 q 241 778 279 716 q 335 623 355 603 q 363 607 438 672 q 504 730 539 730 q 584 730 594 643 q 520 607 440 528 q 442 527 520 493 q 568 472 600 448 z"},"Y":{"x_min":0,"x_max":612,"ha":612,"o":"m 647 814 q 656 798 656 775 q 656 725 612 640 q 586 588 516 477 q 447 366 422 316 q 412 298 358 248 q 305 198 289 169 q 265 122 240 75 q 205 6 175 -33 q 202 -60 220 -60 q 212 -113 159 -137 q 98 -160 37 -184 q 1 -126 1 -45 q 81 -14 156 116 q 207 217 258 317 q 249 362 150 477 q 10 639 4 647 q 8 708 13 722 q 24 752 70 784 q 112 772 168 692 q 216 620 264 549 q 321 473 370 466 q 411 517 463 622 q 515 726 543 814 z"},"c":{"x_min":0,"x_max":603,"ha":603,"o":"m 635 620 q 627 518 622 473 q 609 374 585 306 q 575 305 530 295 q 489 287 471 287 q 468 360 493 454 q 518 547 518 571 q 518 633 442 670 q 435 672 426 672 q 366 672 280 564 q 200 463 160 352 q 129 267 129 154 q 129 -13 214 -56 q 239 -69 278 -69 q 317 -69 416 -50 q 515 -30 562 -30 q 588 -30 609 -34 q 559 -86 446 -133 q 325 -182 224 -182 q 126 -182 80 -131 q 10 -53 10 96 q 10 210 49 334 q 84 444 121 485 q 138 503 159 562 q 182 625 193 640 q 224 685 288 734 q 351 783 411 809 q 420 813 434 813 q 448 813 480 807 q 509 802 520 804 q 550 778 593 710 q 636 641 635 620 z"},"!":{"x_min":0,"x_max":345,"ha":345,"o":"m 369 715 q 369 698 326 463 q 275 193 259 79 q 254 79 234 70 q 214 62 192 62 q 165 62 128 97 q 92 132 92 162 q 92 181 106 210 q 117 230 127 251 q 230 506 230 636 q 230 680 219 716 q 230 738 263 772 q 296 807 317 815 q 343 786 358 752 q 369 727 369 715 z m 215 -69 q 215 -111 185 -150 q 158 -185 138 -185 q 80 -185 38 -151 q 0 -121 0 -85 q 0 -54 42 -20 q 83 15 131 15 q 160 15 188 -12 q 215 -40 215 -69 z"},"/":{"x_min":0,"x_max":528,"ha":528,"o":"m 565 725 q 411 500 311 309 q 168 37 168 -101 q 168 -128 173 -149 q 160 -149 111 -166 q 62 -183 36 -183 q 17 -154 17 -116 q 17 -59 65 34 q 109 113 154 193 q 254 394 354 594 q 472 811 553 813 q 553 807 560 780 q 566 753 566 738 q 566 731 565 725 z"},"[":{"x_min":0,"x_max":658,"ha":658,"o":"m 705 627 q 668 588 621 588 q 584 588 513 620 q 442 653 411 653 q 381 653 359 633 q 264 438 184 23 q 238 -37 349 -37 q 396 -37 503 -21 q 606 -7 655 -8 q 604 -74 482 -106 q 406 -127 240 -145 q 70 -163 2 -180 q 6 -173 6 -159 q 6 -148 2 -120 q -3 -92 -3 -77 q -3 -55 5 -40 q 102 140 140 280 q 160 349 191 547 q 193 562 193 581 q 193 605 186 658 q 180 710 180 736 q 180 768 187 791 q 205 796 225 796 q 265 796 324 778 q 397 756 403 755 q 429 750 522 745 q 600 740 646 727 q 654 717 705 627 z"},"6":{"x_min":0,"x_max":595,"ha":595,"o":"m 638 136 q 638 53 555 -28 q 489 -92 388 -141 q 300 -183 259 -183 q 131 -183 57 -57 q 0 39 0 136 q 0 179 90 346 q 189 529 293 657 q 424 817 509 817 q 519 817 554 776 q 596 726 603 682 q 318 502 240 399 q 366 403 491 336 q 638 258 638 136 z m 500 153 q 500 200 426 244 q 362 283 319 283 q 297 283 264 263 q 241 250 231 239 q 207 216 181 152 q 155 89 155 59 q 155 34 209 -6 q 260 -45 284 -45 q 352 -45 427 28 q 500 98 500 153 z"},"r":{"x_min":0,"x_max":705,"ha":705,"o":"m 755 614 q 753 530 677 458 q 622 405 504 342 q 322 244 313 239 q 335 205 357 150 q 381 91 403 53 q 442 -13 515 -99 q 520 -106 520 -121 q 520 -153 504 -184 q 461 -192 406 -174 q 374 -134 308 -26 q 248 72 200 129 q 171 119 160 69 q 155 46 149 -38 q 144 -114 132 -153 q 111 -159 94 -159 q 21 -159 21 -55 q 21 24 55 118 q 103 245 152 372 q 212 538 212 612 q 212 650 198 668 q 228 711 257 754 q 303 817 341 817 q 355 817 370 808 q 382 799 404 772 q 427 745 443 734 q 497 728 552 721 q 630 711 677 691 q 740 663 755 614 z m 609 619 q 544 621 479 623 q 403 623 350 614 q 278 506 271 339 q 381 363 488 435 q 611 518 611 600 q 611 610 609 619 z"},"2":{"x_min":0,"x_max":604,"ha":604,"o":"m 639 584 q 615 479 502 307 q 385 130 238 -17 q 275 -47 369 -51 q 481 -56 508 -66 q 572 -88 569 -166 q 528 -166 400 -162 q 290 -159 223 -159 q 129 -159 53 -164 q 32 -146 17 -105 q 2 -64 5 -29 q 168 62 312 232 q 487 439 502 632 q 473 683 432 683 q 391 683 310 616 q 228 550 197 550 q 147 550 128 669 q 219 719 310 769 q 417 821 494 821 q 532 821 566 809 q 647 781 647 662 q 647 623 639 584 z"},"{":{"x_min":0,"x_max":502,"ha":502,"o":"m 508 651 q 438 673 398 673 q 294 673 286 558 q 315 470 315 444 q 315 365 222 293 q 278 254 278 192 q 278 159 258 92 q 237 25 237 -5 q 237 -54 273 -86 q 295 -86 366 -82 q 438 -78 471 -78 q 452 -120 384 -148 q 317 -175 245 -175 q 103 -175 103 -78 q 103 -41 122 32 q 145 121 148 139 q 129 172 90 186 q 39 205 34 209 q 9 228 9 280 q 22 334 67 343 q 105 344 143 345 q 210 400 203 430 q 192 479 176 527 q 172 538 172 550 q 172 623 268 717 q 364 811 434 811 q 445 811 454 808 q 479 799 507 767 q 538 731 538 699 q 538 669 508 651 z"},"9":{"x_min":0,"x_max":542,"ha":542,"o":"m 581 699 q 552 604 482 449 q 401 270 379 211 q 331 82 331 -13 q 331 -48 337 -81 q 334 -96 308 -147 q 266 -150 198 -184 q 175 -165 161 -165 q 176 -72 229 73 q 233 84 335 343 q 257 329 198 329 q -5 329 -5 505 q -5 555 10 619 q 22 667 97 712 q 164 753 244 772 q 255 775 307 795 q 348 812 373 812 q 410 812 482 769 q 536 736 581 699 z m 379 671 q 363 671 351 674 q 321 679 312 689 q 258 674 197 625 q 125 568 125 517 q 125 482 162 456 q 182 445 206 445 q 268 445 326 505 q 385 565 385 632 q 385 652 379 671 z"}," ":{"x_min":0,"x_max":500,"ha":500,"o":""},"I":{"x_min":0,"x_max":367,"ha":367,"o":"m 394 741 q 371 635 308 451 q 232 233 212 161 q 167 1 170 -111 q 137 -145 60 -183 q 47 -183 4 -126 q 98 148 123 229 q 192 454 221 643 q 224 685 228 727 q 234 785 254 816 q 384 822 394 741 z"},"H":{"x_min":0,"x_max":818,"ha":818,"o":"m 877 745 q 818 572 759 398 q 691 194 650 52 q 645 35 644 -24 q 644 -83 635 -108 q 621 -147 582 -147 q 550 -147 499 -122 q 488 -111 488 -87 q 488 -53 513 13 q 533 64 554 115 q 540 144 479 144 q 453 144 305 119 q 264 3 254 -147 q 229 -154 204 -160 q 159 -171 129 -171 q 109 -171 94 -166 q 92 -130 120 -39 q 152 65 155 81 q 143 89 126 89 q 120 89 106 88 q 93 86 87 86 q 31 86 0 161 q 9 201 74 205 q 151 211 171 232 q 235 297 265 444 q 288 560 311 675 q 346 787 428 798 q 428 789 446 765 q 459 748 471 732 q 405 548 385 492 q 337 352 307 242 q 340 228 396 228 q 456 228 500 245 q 550 266 557 306 q 564 306 588 298 q 611 291 619 291 q 659 372 693 522 q 707 582 743 775 q 798 817 841 809 q 852 802 864 780 q 877 757 877 745 z"},"4":{"x_min":0,"x_max":678,"ha":678,"o":"m 726 706 q 725 601 674 442 q 627 309 580 176 q 530 30 530 -45 q 530 -95 550 -127 q 528 -142 472 -154 q 417 -167 392 -183 q 351 -157 351 -103 q 351 -49 400 64 q 459 198 468 237 q 449 238 427 238 q 354 238 238 225 q 137 214 36 202 q 36 224 26 256 q 16 288 16 302 q 16 316 22 329 q 37 362 139 566 q 214 714 253 808 q 265 811 281 811 q 349 811 383 777 q 364 719 278 576 q 206 454 206 413 q 206 392 219 380 q 232 360 278 348 q 321 337 374 337 q 488 337 511 379 q 547 443 575 550 q 597 637 619 724 q 631 729 650 729 q 698 729 726 706 z"},"~":{"x_min":0,"x_max":647,"ha":647,"o":"m 693 960 q 641 867 504 867 q 381 867 300 940 q 291 934 243 868 q 205 815 171 815 q 141 815 107 852 q 129 907 137 962 q 143 1006 152 1017 q 165 1035 218 1055 q 237 1062 259 1062 q 304 1062 410 1016 q 517 969 573 969 q 621 969 661 993 z"},"D":{"x_min":0,"x_max":660,"ha":660,"o":"m 670 343 q 609 220 430 59 q 259 -95 101 -181 q 55 -166 0 -84 q 58 -6 107 224 q 146 422 185 620 q 80 685 80 729 q 80 764 147 783 q 206 799 302 799 q 395 799 484 784 q 573 769 607 746 q 696 606 696 462 q 696 394 670 343 z m 393 692 q 260 657 179 117 q 175 94 184 68 q 194 42 206 31 q 341 82 451 217 q 565 357 565 484 q 565 634 393 692 z"},"^":{"x_min":0,"x_max":572,"ha":572,"o":"m 613 851 q 588 822 560 822 q 519 822 436 911 q 346 1008 300 1023 q 251 1001 175 918 q 110 847 73 847 q 64 847 55 849 q 55 851 48 881 q 42 907 44 923 q 152 1016 221 1093 q 255 1130 288 1166 q 308 1184 355 1188 q 374 1176 407 1122 q 447 1056 468 1031 q 479 1018 524 984 q 566 952 580 932 q 613 886 613 851 z"},"0":{"x_min":0,"x_max":634,"ha":634,"o":"m 512 714 q 651 615 651 439 q 651 256 514 68 q 379 -116 216 -170 q 194 -178 168 -178 q 115 -178 80 -151 q 46 -124 24 -54 q 4 12 4 83 q 4 118 9 147 q 43 322 136 496 q 249 709 403 814 q 441 811 467 772 q 502 721 512 714 z m 389 638 q 353 616 318 593 q 278 567 270 556 q 183 439 122 221 q 111 182 111 129 q 111 73 122 28 q 135 -20 154 -33 q 186 -57 222 -57 q 236 -57 246 -52 q 371 14 462 146 q 552 279 552 404 q 552 568 389 638 z"},"F":{"x_min":0,"x_max":754,"ha":754,"o":"m 808 722 q 808 689 775 643 q 747 643 659 650 q 575 656 526 656 q 392 656 326 614 q 239 560 249 429 q 313 400 470 386 q 599 374 647 327 q 600 321 502 320 q 394 320 346 316 q 260 308 202 280 q 181 271 161 195 q 143 130 136 57 q 135 44 135 30 q 135 -21 161 -152 q 120 -170 43 -170 q 22 -170 2 -168 q -1 -107 35 52 q 64 173 92 294 q 98 322 150 505 q 186 631 186 713 q 186 748 181 780 q 213 811 259 811 q 331 811 393 744 q 424 742 510 756 q 603 771 651 771 q 751 771 808 722 z"},"`":{"x_min":0,"x_max":423,"ha":423,"o":"m 453 874 q 444 857 421 830 q 279 878 185 945 q 64 1031 97 1106 q 102 1105 133 1107 q 158 1110 171 1100 q 211 1070 304 993 q 397 916 453 874 z"},"k":{"x_min":0,"x_max":791,"ha":791,"o":"m 841 642 q 829 622 811 600 q 795 582 779 563 q 768 564 757 564 q 610 564 359 339 q 426 187 445 153 q 523 12 613 -44 q 569 -149 522 -149 q 484 -149 434 -78 q 425 -65 344 72 q 288 168 247 204 q 213 204 203 177 q 198 129 198 70 q 198 35 200 -27 q 203 -99 203 -129 q 188 -163 116 -163 q 69 -163 38 -144 q 2 -121 4 -79 q 6 -47 35 16 q 68 88 74 116 q 81 143 76 217 q 72 283 85 312 q 143 432 165 525 q 178 582 183 666 q 188 749 199 796 q 221 814 320 814 q 324 712 288 459 q 354 470 449 539 q 530 603 612 667 q 706 740 767 756 q 848 705 848 662 q 848 651 841 642 z"},"u":{"x_min":0,"x_max":592,"ha":592,"o":"m 610 815 q 634 749 634 661 q 634 427 486 127 q 461 75 435 22 q 395 -55 351 -102 q 293 -166 225 -181 q 213 -183 196 -183 q 142 -183 99 -164 q 3 -42 3 115 q 3 182 36 382 q 68 571 63 704 q 106 721 181 753 q 181 748 203 724 q 225 700 225 685 q 225 650 205 586 q 189 534 173 482 q 116 283 116 174 q 116 19 208 -46 q 327 32 420 192 q 512 349 512 469 q 512 479 516 510 q 520 541 520 560 q 520 577 517 591 q 516 600 497 642 q 479 679 479 703 q 479 739 523 769 q 542 783 574 798 q 607 813 610 815 z"},"]":{"x_min":0,"x_max":617,"ha":617,"o":"m 616 761 q 616 633 586 412 q 557 190 557 115 q 557 -10 607 -61 q 535 -121 416 -147 q 340 -163 208 -169 q 76 -175 39 -183 q 13 -164 13 -123 q 13 -112 16 -89 q 18 -66 18 -55 q 35 -53 57 -53 q 80 -53 136 -58 q 191 -62 220 -62 q 300 -62 348 -33 q 429 15 452 162 q 463 235 463 431 q 463 438 466 470 q 468 501 468 521 q 468 606 431 631 q 378 643 295 643 q 277 643 201 641 q 143 640 107 641 q 64 693 70 745 q 77 758 104 780 q 130 802 153 810 q 162 813 188 804 q 232 789 240 787 q 271 780 311 780 q 356 780 436 792 q 537 807 567 810 q 598 791 616 761 z"},"U":{"x_min":0,"x_max":592,"ha":592,"o":"m 610 815 q 634 749 634 661 q 634 427 486 127 q 461 75 435 22 q 395 -55 351 -102 q 293 -166 225 -181 q 213 -183 196 -183 q 142 -183 99 -164 q 3 -42 3 115 q 3 182 36 382 q 68 571 63 704 q 106 721 181 753 q 181 748 203 724 q 225 700 225 685 q 225 650 205 586 q 189 534 173 482 q 116 283 116 174 q 116 19 208 -46 q 327 32 420 192 q 512 349 512 469 q 512 479 516 510 q 520 541 520 560 q 520 577 517 591 q 516 600 497 642 q 479 679 479 703 q 479 740 523 770 q 542 783 574 798 q 606 813 610 815 z"},"o":{"x_min":0,"x_max":577,"ha":577,"o":"m 475 794 q 585 641 585 437 q 585 264 505 104 q 424 -59 285 -156 q 269 -156 222 -168 q 175 -180 151 -180 q 122 -180 104 -166 q -7 -72 -7 90 q -7 278 149 564 q 214 682 324 814 q 334 811 475 794 z m 385 655 q 284 587 202 443 q 111 284 111 137 q 111 31 162 -50 q 165 -51 194 -61 q 218 -69 227 -69 q 355 5 425 134 q 488 251 488 383 q 488 560 385 655 z"},"N":{"x_min":0,"x_max":898,"ha":898,"o":"m 952 652 q 891 581 810 324 q 739 97 704 -95 q 665 -118 626 -141 q 558 -179 512 -181 q 503 -149 500 -76 q 497 -7 486 26 q 411 250 314 444 q 273 336 232 228 q 177 62 177 -52 q 177 -94 184 -129 q 164 -127 122 -148 q 91 -166 59 -183 q 19 -157 19 -99 q 19 -41 67 79 q 123 216 129 251 q 151 338 172 425 q 203 553 203 628 q 203 676 191 708 q 199 736 229 792 q 285 804 317 804 q 348 804 371 797 q 374 721 416 595 q 439 522 506 350 q 574 177 602 88 q 701 289 741 393 q 803 550 803 647 q 803 702 784 742 q 807 767 856 792 q 906 816 935 816 q 942 816 947 814 q 962 757 962 715 q 962 680 952 652 z"},"+":{"x_min":0,"x_max":684,"ha":684,"o":"m 733 381 q 722 337 633 322 q 555 312 477 303 q 449 247 442 167 q 439 133 439 29 q 419 24 402 24 q 322 24 322 139 q 322 212 347 271 q 320 288 282 288 q 252 288 192 274 q 133 259 107 259 q 66 259 41 283 q 35 311 65 346 q 91 376 126 395 q 186 368 235 368 q 284 368 357 399 q 374 421 375 460 q 377 504 384 521 q 398 557 447 587 q 502 542 502 504 q 502 489 492 465 q 481 437 479 424 q 490 422 500 422 q 522 422 538 435 q 553 448 568 461 q 668 461 733 381 z"},"G":{"x_min":0,"x_max":661,"ha":661,"o":"m 708 77 q 700 79 691 79 q 650 79 569 12 q 441 -95 414 -113 q 314 -181 225 -181 q 107 -181 48 -91 q -2 -15 -2 109 q -2 247 53 376 q 81 440 130 526 q 192 632 248 694 q 300 753 413 810 q 660 825 660 567 q 660 461 604 258 q 575 254 553 254 q 472 254 472 306 q 472 334 513 428 q 554 523 554 571 q 554 631 505 665 q 339 683 226 496 q 127 331 127 137 q 127 45 155 -10 q 185 -69 242 -69 q 327 -69 452 65 q 428 80 325 100 q 227 118 194 143 q 194 202 247 245 q 267 248 327 222 q 393 194 428 191 q 556 181 579 175 q 670 152 708 77 z"},"q":{"x_min":0,"x_max":595,"ha":595,"o":"m 572 255 q 556 211 509 141 q 432 26 425 15 q 421 9 421 -1 q 421 -14 434 -64 q 447 -113 445 -140 q 430 -152 393 -164 q 360 -174 327 -185 q 327 -180 320 -155 q 312 -130 312 -114 q 154 -126 72 -33 q -1 50 -1 197 q -1 356 79 517 q 162 684 290 766 q 333 776 413 761 q 420 773 461 790 q 499 807 517 808 q 605 692 605 476 q 605 350 572 255 z m 491 657 q 465 664 438 664 q 309 664 209 522 q 113 388 113 236 q 113 148 152 87 q 195 20 279 -1 q 279 122 228 353 q 231 355 271 387 q 299 409 313 407 q 348 356 366 258 q 390 132 393 124 q 454 198 487 303 q 517 399 517 499 q 517 592 491 657 z"},"d":{"x_min":0,"x_max":660,"ha":660,"o":"m 670 343 q 609 220 430 59 q 259 -95 101 -181 q 55 -166 0 -84 q 58 -6 107 224 q 146 422 185 620 q 80 685 80 729 q 80 764 147 783 q 206 799 302 799 q 395 799 484 784 q 573 769 607 746 q 696 606 696 462 q 696 394 670 343 z m 393 692 q 260 657 179 117 q 175 94 184 68 q 194 42 206 31 q 341 82 451 217 q 565 357 565 484 q 565 634 393 692 z"},"1":{"x_min":0,"x_max":581,"ha":581,"o":"m 623 798 q 605 678 545 482 q 468 232 452 165 q 408 -12 415 -145 q 393 -158 340 -170 q 288 -182 252 -182 q 256 -73 321 120 q 404 365 441 567 q 301 458 250 426 q 122 346 35 348 q 17 389 17 443 q 17 466 22 479 q 107 508 192 537 q 298 577 378 631 q 435 669 450 721 q 455 749 459 776 q 489 799 530 799 q 534 799 572 797 q 600 796 623 798 z"},"5":{"x_min":0,"x_max":822,"ha":822,"o":"m 881 726 q 869 659 776 659 q 753 659 700 664 q 647 669 620 669 q 547 669 506 641 q 454 606 441 522 q 455 508 455 493 q 622 505 705 456 q 780 412 780 324 q 780 223 687 97 q 598 -26 469 -110 q 330 -200 209 -200 q 81 -200 5 -94 q -4 -69 5 -7 q 60 36 115 36 q 151 -89 264 -89 q 375 -89 497 18 q 619 124 648 249 q 618 356 534 356 q 501 356 432 336 q 359 315 328 313 q 280 345 258 402 q 288 456 288 502 q 288 534 271 577 q 254 620 254 637 q 254 664 278 689 q 317 732 549 776 q 591 786 632 795 q 679 805 712 805 q 802 805 881 726 z"}}}
